<svg xmlns="http://www.w3.org/2000/svg" width="1280" height="800" viewBox="0 0 1280 800"><defs><filter id="shadow" x="-30%" y="-30%" width="160%" height="180%"><feDropShadow dx="0" dy="16" stdDeviation="22" flood-color="#35251F" flood-opacity=".16"/></filter><linearGradient id="bg" x1="0" y1="0" x2="1" y2="1"><stop stop-color="#FBF5E9"/><stop offset="1" stop-color="#FFFCF7"/></linearGradient></defs><rect width="100%" height="100%" fill="url(#bg)"/><text x="65" y="143" font-family="Arial" font-size="15" font-weight="700" letter-spacing="2" fill="#7D3424">YOUR AI, YOUR CHOICE</text><text x="65" y="197" font-family="Arial" font-size="42" font-weight="700" fill="#35251F">Set up in minutes.</text><text x="65" y="247" font-family="Arial" font-size="42" font-weight="700" fill="#35251F">Stay in control.</text><text x="65" y="292" font-family="Arial" font-size="17" fill="#6B5E56">Use OpenRouter or Google AI Studio,</text><text x="65" y="317" font-family="Arial" font-size="17" fill="#6B5E56">choose a model, and start writing.</text><g filter="url(#shadow)"><rect x="535" y="67" width="665" height="666" rx="18" fill="#fff"/><rect x="535" y="67" width="180" height="666" rx="18" fill="#35251F"/><g transform="translate(548.0 82.0) scale(0.0781)"><path fill="#A7472D" d="M256 52c-111 0-199 72-199 166 0 78 57 138 144 155l-14 65 84-60c103-7 184-78 184-168 0-88-88-158-199-158Z"/><path fill="#F0C764" d="M239 292c-32-7-60-37-62-77 38 6 72 33 85 62 7 15-7 23-23 15Z"/><path fill="#F0C764" d="M278 284c5-37 28-71 65-88 6 39-10 72-39 93-13 9-28 7-26-5Z"/><path fill="#F0C764" d="M245 303c10 7 25 11 40 6-4 17-16 31-33 40-9-13-12-30-7-46Z"/></g><text x="591" y="107" font-family="Georgia, 'DejaVu Serif', 'Times New Roman', serif" font-size="13" font-weight="700" fill="#fff">WordSaffron</text><circle cx="565" cy="194" r="12" fill="#9C412B"/><text x="565" y="198" text-anchor="middle" font-family="Arial" font-size="8" fill="#fff">✓</text><text x="590" y="198" font-family="Arial" font-size="9" fill="#D8CABB">Welcome</text><circle cx="565" cy="244" r="12" fill="#9C412B"/><text x="565" y="248" text-anchor="middle" font-family="Arial" font-size="8" fill="#fff">2</text><text x="590" y="248" font-family="Arial" font-size="9" fill="#fff">Connect your AI</text><circle cx="565" cy="294" r="12" fill="none" stroke="#D8CABB"/><text x="565" y="298" text-anchor="middle" font-family="Arial" font-size="8" fill="#D8CABB">3</text><text x="590" y="298" font-family="Arial" font-size="9" fill="#D8CABB">Preferences</text><text x="758" y="143" font-family="Arial" font-size="9" font-weight="700" letter-spacing="1" fill="#7D3424">STEP 2 OF 4</text><text x="758" y="184" font-family="Arial" font-size="28" font-weight="700" fill="#35251F">Connect your AI</text><text x="758" y="215" font-family="Arial" font-size="11" fill="#6B5E56">Use one API key to access your preferred AI model.</text><text x="758" y="267" font-family="Arial" font-size="10" font-weight="700" fill="#493A33">OpenRouter API key</text><rect x="758" y="279" width="389" height="42" rx="7" fill="#fff" stroke="#9C412B"/><text x="773" y="304" font-family="Arial" font-size="11" fill="#493A33">sk-or-v1-••••••••••••••••</text><text x="758" y="347" font-family="Arial" font-size="10" font-weight="700">Provider</text><rect x="758" y="357" width="389" height="32" rx="7" fill="#fff" stroke="#D8CABB"/><text x="773" y="378" font-family="Arial" font-size="11">OpenRouter ▾</text><text x="758" y="419" font-family="Arial" font-size="10" font-weight="700">Model</text><rect x="758" y="431" width="389" height="42" rx="7" fill="#fff" stroke="#D8CABB"/><text x="773" y="456" font-family="Arial" font-size="11">Select a model from the live catalogue</text><rect x="758" y="503" width="389" height="39" rx="7" fill="#E8EFDC"/><text x="773" y="527" font-family="Arial" font-size="10" fill="#7D3424">✓ Connected successfully</text><rect x="1024" y="644" width="123" height="40" rx="7" fill="#9C412B"/><text x="1085" y="669" text-anchor="middle" font-family="Arial" font-size="10" font-weight="700" fill="#fff">Continue  →</text></g><text x="16" y="788" font-family="Arial" font-size="10" fill="#6B5E56">DESIGN MOCKUP · NOT A RUNTIME SCREENSHOT</text></svg>